<svg xmlns="http://www.w3.org/2000/svg" viewBox="0 0 283.46 175.84"><defs><style>.cls-1{fill:#fff;}</style></defs><title>Asset 1</title><g id="Layer_2" data-name="Layer 2"><g id="Layer_1-2" data-name="Layer 1"><g id="_Group_" data-name="&lt;Group&gt;"><path id="_Compound_Path_" data-name="&lt;Compound Path&gt;" class="cls-1" d="M9.5,175.77A19,19,0,0,1,0,172.88L1.81,167a14.05,14.05,0,0,0,7.88,2.73c2.31,0,3.19-1.08,3.19-2.46s-.73-2.46-5-4.19c-5-2-6.69-4.88-6.69-8.27,0-4.11,3.34-8.11,9.92-8.11A15.5,15.5,0,0,1,19,148.85l-1.66,5.84a12.69,12.69,0,0,0-6.23-2.31c-2.38,0-3.34,1.11-3.34,2.27,0,1.85,1.42,2.46,5,4,5.27,2.23,6.85,4.77,6.85,8.38C19.54,171.5,16.27,175.77,9.5,175.77Z"/><path id="_Compound_Path_2" data-name="&lt;Compound Path&gt;" class="cls-1" d="M47.79,153.12v22.19H41.26V153.12H32.8v-6H56.25v6Z"/><path id="_Compound_Path_3" data-name="&lt;Compound Path&gt;" class="cls-1" d="M85.75,175.31l-2.11-5.12H73.91l-2.11,5.12H65.14l13.26-28.42h.89l13.26,28.42Zm-7-16.88L76,165.19h5.58Z"/><path id="_Compound_Path_4" data-name="&lt;Compound Path&gt;" class="cls-1" d="M116.63,153.12v22.19h-6.53V153.12h-8.46v-6h23.46v6Z"/><path id="_Compound_Path_5" data-name="&lt;Compound Path&gt;" class="cls-1" d="M166,175.77l-.89.08L156.5,159,148,175.84l-.85-.08-10.27-28.64h7.5l4.53,14.8,7.34-15h.69l7.38,14.92,4.5-14.69h7.34Z"/><path id="_Compound_Path_6" data-name="&lt;Compound Path&gt;" class="cls-1" d="M202.62,175.77c-8.72,0-14.3-6.27-14.3-14.53s5.84-14.57,14.57-14.57,14.31,6.26,14.31,14.57S211.32,175.77,202.62,175.77Zm.12-23.26c-4.46,0-7.46,3.65-7.46,8.73s3,8.73,7.46,8.73,7.46-3.69,7.46-8.73S207.2,152.5,202.74,152.5Z"/><path id="_Compound_Path_7" data-name="&lt;Compound Path&gt;" class="cls-1" d="M233.21,175.31V147.12h6.53v22.23h11.31v6Z"/><path id="_Compound_Path_8" data-name="&lt;Compound Path&gt;" class="cls-1" d="M272.16,153.12v6.23h9.69v5.73h-9.69v10.23h-6.53V147.12h17.84v6Z"/><path id="_Compound_Path_9" data-name="&lt;Compound Path&gt;" class="cls-1" d="M145.58,118.53a99.93,99.93,0,0,1,48.13-42.3l.21-.09A3.77,3.77,0,0,0,196,71.83a99.61,99.61,0,0,1-2.86-23.73,98.23,98.23,0,0,1,9.3-42,3.77,3.77,0,0,0-3-5.35A108.5,108.5,0,0,0,186.35,0a105.57,105.57,0,0,0-45.21,10l-.5.24-.5-.24A105.56,105.56,0,0,0,94.94,0,108.58,108.58,0,0,0,81.8.8a3.77,3.77,0,0,0-3,5.35,98.2,98.2,0,0,1,9.3,42,99.66,99.66,0,0,1-2.86,23.73,3.75,3.75,0,0,0,2.23,4.39,99.78,99.78,0,0,1,48.19,42.31c1.66,0,3.31-.13,5-.13S143.95,118.49,145.58,118.53Zm5.74-104.62A98.76,98.76,0,0,1,191.83,7.7l1.63.09-.6,1.52a106,106,0,0,0-7.27,37.28l-.05,3.76-2.11-3.11-1.05-1.53-.94-1.36c-1.08-1.5-2.2-3-3.36-4.41-.34-.42-.69-.84-1-1.25l-.52-.61c-.7-.83-1.41-1.66-2.13-2.48s-1.26-1.37-1.9-2-1.35-1.42-2-2.12-1.34-1.34-2-2-1.47-1.37-2.22-2l-.42-.38c-.67-.6-1.12-1-1.58-1.41-1-.87-2.08-1.72-3.14-2.56-.64-.5-1.27-1-1.92-1.5-1.28-1-2.57-1.91-3.89-2.81l-1.68-1.11c-.82-.55-1.64-1.08-2.47-1.6l-2-1.27ZM87.82,7.79l1.64-.09A98.17,98.17,0,0,1,130,13.91l2.22.84-2,1.27q-1.24.78-2.46,1.59l-.53.35c-.4.26-.78.51-1.16.77q-2,1.35-3.85,2.79c-.65.49-1.28,1-2,1.55-1,.83-2.09,1.67-3.1,2.54-.53.44-1,.9-1.53,1.36l-.5.45c-.73.66-1.47,1.33-2.19,2s-1.38,1.33-2.05,2-1.35,1.38-2,2.08-1.29,1.37-1.92,2.08-1.4,1.61-2.09,2.43l-.52.62c-.37.43-.73.85-1.08,1.28-1.15,1.44-2.27,2.89-3.35,4.39-.2.28-.39.55-.58.83l-3.54,5.17-.05-3.75A105.91,105.91,0,0,0,88.42,9.31Zm51.83,102.67a108.58,108.58,0,0,0-44.7-39.2l-1-.48L95,68.17c.32-.77.66-1.54,1-2.31s.7-1.49,1.09-2.3c.27-.57.55-1.14.84-1.7.45-.89.92-1.76,1.4-2.63l.66-1.18c.58-1,1.17-2,1.78-3l.38-.61c.72-1.15,1.46-2.28,2.25-3.45a101,101,0,0,1,24.41-25l.42-.31c.76-.55,1.52-1.05,2.45-1.67l1.52-1L135,21.9l.33-.2c.76-.46,1.37-.83,2-1.18l1.87-1,1.43-.76,1.45.77c.62.34,1.24.67,1.84,1s1.28.75,2,1.21l.35.21c.57.35,1.14.69,1.7,1.06l1,.68.55.36c.8.53,1.61,1.07,2.4,1.63l.49.36a101.34,101.34,0,0,1,24.39,25c.76,1.11,1.5,2.25,2.21,3.39l.38.62c.61,1,1.21,2,1.78,3l.66,1.19c.48.86.94,1.74,1.4,2.62.3.59.59,1.18.87,1.76.36.74.72,1.48,1.06,2.22s.61,1.39.91,2.08l1.18,2.85-1,.48a106.6,106.6,0,0,0-44.69,39.2l-1,1.56Z"/></g></g></g></svg>